<?xml version="1.0" encoding="UTF-8"?>
<svg width="24px" height="24px" viewBox="0 0 24 24" stroke-width="1.5" fill="none" xmlns="http://www.w3.org/2000/svg" color="#d4b483">
<path d="M2 14v-4a1 1 0 011-1h2.697a1 1 0 00.555-.168l4.193-2.796A1 1 0 0112 6.87v10.26a1 1 0 01-1.555.832l-4.193-2.796A1 1 0 005.697 15H3a1 1 0 01-1-1z" stroke="#d4b483" stroke-width="1.5" stroke-linecap="round" stroke-linejoin="round"></path>
<path d="M14 9.5s.96-.906 2.405-.906C17.848 8.594 19 9.5 19 12s-1.152 3.406-2.595 3.406C14.96 15.406 14 14.5 14 14.5" stroke="#d4b483" stroke-width="1.5" stroke-linecap="round" stroke-linejoin="round"></path>
</svg>